<mxfile host="65bd71144e">
    <diagram id="wchiuT_AfNnw1r3C1ELz" name="Page-1">
        <mxGraphModel dx="886" dy="844" grid="1" gridSize="10" guides="1" tooltips="1" connect="1" arrows="1" fold="1" page="1" pageScale="1" pageWidth="850" pageHeight="1100" math="0" shadow="0">
            <root>
                <mxCell id="0"/>
                <mxCell id="1" parent="0"/>
                <mxCell id="3" value="" style="strokeWidth=1;shadow=0;dashed=0;align=center;html=1;shape=mxgraph.mockup.containers.browserWindow;rSize=0;strokeColor=#666666;strokeColor2=#008cff;strokeColor3=#c4c4c4;mainText=,;recursiveResize=0;" parent="1" vertex="1">
                    <mxGeometry x="143.6" y="80" width="1170" height="710" as="geometry"/>
                </mxCell>
                <mxCell id="4" value="Page 1" style="strokeWidth=1;shadow=0;dashed=0;align=center;html=1;shape=mxgraph.mockup.containers.anchor;fontSize=17;fontColor=#666666;align=left;" parent="3" vertex="1">
                    <mxGeometry x="60" y="12" width="110" height="26" as="geometry"/>
                </mxCell>
                <mxCell id="5" value="https://www.draw.io" style="strokeWidth=1;shadow=0;dashed=0;align=center;html=1;shape=mxgraph.mockup.containers.anchor;rSize=0;fontSize=17;fontColor=#666666;align=left;" parent="3" vertex="1">
                    <mxGeometry x="130" y="60" width="250" height="26" as="geometry"/>
                </mxCell>
                <mxCell id="6" value="Logo" style="rounded=1;whiteSpace=wrap;html=1;" parent="3" vertex="1">
                    <mxGeometry x="40" y="130" width="100" height="40" as="geometry"/>
                </mxCell>
                <mxCell id="9" value="" style="strokeWidth=1;shadow=0;dashed=0;align=center;html=1;shape=mxgraph.mockup.text.rrect;rSize=0;strokeColor=#666666;container=0;" parent="3" vertex="1">
                    <mxGeometry x="160" y="130" width="390" height="40" as="geometry"/>
                </mxCell>
                <mxCell id="14" value="" style="group" parent="3" vertex="1" connectable="0">
                    <mxGeometry x="160" y="130" width="390" height="40" as="geometry"/>
                </mxCell>
                <mxCell id="10" value="Phòng ban" style="strokeWidth=1;shadow=0;dashed=0;align=center;html=1;shape=mxgraph.mockup.text.rrect;rSize=0;fontSize=17;" parent="14" vertex="1">
                    <mxGeometry x="130" width="130" height="40" as="geometry"/>
                </mxCell>
                <mxCell id="11" value="Bảng lương" style="strokeWidth=1;shadow=0;dashed=0;align=center;html=1;shape=mxgraph.mockup.text.rrect;rSize=0;fontSize=17;fillColor=#1ba1e2;fontColor=#ffffff;strokeColor=#006EAF;" parent="14" vertex="1">
                    <mxGeometry x="260" width="130" height="40" as="geometry"/>
                </mxCell>
                <mxCell id="13" value="Nhân viên" style="strokeWidth=1;shadow=0;dashed=0;align=center;html=1;shape=mxgraph.mockup.text.rrect;rSize=0;fontSize=17;fontColor=#ffffff;fillColor=none;strokeColor=default;" parent="14" vertex="1">
                    <mxGeometry width="130" height="40" as="geometry"/>
                </mxCell>
                <mxCell id="136" value="&lt;h3 style=&quot;box-sizing: border-box ; margin-top: 0px ; margin-bottom: 0.5rem ; font-family: , &amp;#34;blinkmacsystemfont&amp;#34; , &amp;#34;segoe ui&amp;#34; , &amp;#34;roboto&amp;#34; , &amp;#34;oxygen&amp;#34; , &amp;#34;ubuntu&amp;#34; , &amp;#34;cantarell&amp;#34; , &amp;#34;fira sans&amp;#34; , &amp;#34;droid sans&amp;#34; , &amp;#34;helvetica neue&amp;#34; , sans-serif ; font-weight: 500 ; line-height: 1.2 ; font-size: 1.75rem&quot;&gt;&lt;font color=&quot;#ffffff&quot;&gt;Nguyễn Văn F&lt;/font&gt;&lt;/h3&gt;&lt;h5 class=&quot;card-title&quot; style=&quot;box-sizing: border-box ; margin-top: 0px ; margin-bottom: 0.75rem ; font-family: , &amp;#34;blinkmacsystemfont&amp;#34; , &amp;#34;segoe ui&amp;#34; , &amp;#34;roboto&amp;#34; , &amp;#34;oxygen&amp;#34; , &amp;#34;ubuntu&amp;#34; , &amp;#34;cantarell&amp;#34; , &amp;#34;fira sans&amp;#34; , &amp;#34;droid sans&amp;#34; , &amp;#34;helvetica neue&amp;#34; , sans-serif ; font-weight: 500 ; line-height: 1.2 ; font-size: 1.25rem&quot;&gt;&lt;font color=&quot;#ffffff&quot;&gt;Mã nhân viên:&amp;nbsp;15&lt;/font&gt;&lt;/h5&gt;&lt;h5 class=&quot;card-title&quot; style=&quot;box-sizing: border-box ; margin-top: 0px ; margin-bottom: 0.75rem ; font-family: , &amp;#34;blinkmacsystemfont&amp;#34; , &amp;#34;segoe ui&amp;#34; , &amp;#34;roboto&amp;#34; , &amp;#34;oxygen&amp;#34; , &amp;#34;ubuntu&amp;#34; , &amp;#34;cantarell&amp;#34; , &amp;#34;fira sans&amp;#34; , &amp;#34;droid sans&amp;#34; , &amp;#34;helvetica neue&amp;#34; , sans-serif ; font-weight: 500 ; line-height: 1.2 ; font-size: 1.25rem&quot;&gt;&lt;font color=&quot;#ffffff&quot;&gt;Hệ số lượng:&amp;nbsp;1&lt;/font&gt;&lt;/h5&gt;&lt;h5 class=&quot;card-title&quot; style=&quot;box-sizing: border-box ; margin-top: 0px ; margin-bottom: 0.75rem ; font-family: , &amp;#34;blinkmacsystemfont&amp;#34; , &amp;#34;segoe ui&amp;#34; , &amp;#34;roboto&amp;#34; , &amp;#34;oxygen&amp;#34; , &amp;#34;ubuntu&amp;#34; , &amp;#34;cantarell&amp;#34; , &amp;#34;fira sans&amp;#34; , &amp;#34;droid sans&amp;#34; , &amp;#34;helvetica neue&amp;#34; , sans-serif ; font-weight: 500 ; line-height: 1.2 ; font-size: 1.25rem&quot;&gt;&lt;font color=&quot;#ffffff&quot;&gt;Số ngày làm thêm:&amp;nbsp;10&lt;/font&gt;&lt;/h5&gt;&lt;div&gt;&lt;font color=&quot;#ffffff&quot;&gt;Lương: 500000&lt;/font&gt;&lt;/div&gt;" style="strokeWidth=1;shadow=0;align=left;html=1;shape=mxgraph.mockup.text.bulletedList;textColor=#666666;mainText=,,,,;textSize=17;bulletStyle=none;strokeColor=default;fillColor=none;align=left;verticalAlign=top;fontSize=17;fontColor=#666666;" parent="3" vertex="1">
                    <mxGeometry x="30" y="375" width="208.4" height="185" as="geometry"/>
                </mxCell>
                <mxCell id="79" style="edgeStyle=none;html=1;exitX=1;exitY=0;exitDx=0;exitDy=0;entryX=1;entryY=0.25;entryDx=0;entryDy=0;fontSize=18;" parent="3" edge="1">
                    <mxGeometry relative="1" as="geometry">
                        <mxPoint x="318.9999999999999" y="360" as="sourcePoint"/>
                        <mxPoint x="318.9999999999999" y="367.5" as="targetPoint"/>
                    </mxGeometry>
                </mxCell>
                <mxCell id="139" value="" style="group" parent="3" vertex="1" connectable="0">
                    <mxGeometry x="-9" y="220" width="279" height="40" as="geometry"/>
                </mxCell>
                <mxCell id="15" value="Nhân viên" style="text;strokeColor=none;fillColor=none;html=1;fontSize=24;fontStyle=1;verticalAlign=middle;align=center;" parent="139" vertex="1">
                    <mxGeometry width="150" height="40" as="geometry"/>
                </mxCell>
                <mxCell id="133" value="/" style="strokeWidth=1;shadow=0;dashed=0;align=center;html=1;shape=mxgraph.mockup.navigation.anchor;fontSize=24;fontColor=#aaaaaa;fontStyle=1;" parent="139" vertex="1">
                    <mxGeometry x="135" y="8" width="20" height="30" as="geometry"/>
                </mxCell>
                <mxCell id="134" value="Bảng lương" style="strokeWidth=1;shadow=0;dashed=0;align=center;html=1;shape=mxgraph.mockup.navigation.anchor;fontSize=17;fontColor=#008cff;fontStyle=1;" parent="139" vertex="1">
                    <mxGeometry x="159" y="6" width="120" height="30" as="geometry"/>
                </mxCell>
                <mxCell id="140" value="Sắp xêp:" style="text;html=1;strokeColor=none;fillColor=none;align=center;verticalAlign=middle;whiteSpace=wrap;rounded=0;" vertex="1" parent="3">
                    <mxGeometry x="6.400000000000006" y="270" width="60" height="30" as="geometry"/>
                </mxCell>
                <mxCell id="143" value="Mã nhân viên" style="strokeWidth=1;shadow=0;dashed=0;align=center;html=1;shape=mxgraph.mockup.buttons.button;strokeColor=#666666;fontColor=#ffffff;mainText=;buttonStyle=round;fontSize=17;fontStyle=1;fillColor=#008cff;whiteSpace=wrap;" vertex="1" parent="3">
                    <mxGeometry x="66.4" y="270" width="113.6" height="30" as="geometry"/>
                </mxCell>
                <mxCell id="145" value="" style="strokeWidth=1;shadow=0;dashed=0;align=center;html=1;shape=mxgraph.mockup.containers.browserWindow;rSize=0;strokeColor=#666666;strokeColor2=#008cff;strokeColor3=#c4c4c4;mainText=,;recursiveResize=0;" vertex="1" parent="1">
                    <mxGeometry x="153.6" y="90" width="1170" height="765" as="geometry"/>
                </mxCell>
                <mxCell id="146" value="Page 1" style="strokeWidth=1;shadow=0;dashed=0;align=center;html=1;shape=mxgraph.mockup.containers.anchor;fontSize=17;fontColor=#666666;align=left;" vertex="1" parent="145">
                    <mxGeometry x="60" y="12" width="110" height="26" as="geometry"/>
                </mxCell>
                <mxCell id="147" value="https://www.draw.io" style="strokeWidth=1;shadow=0;dashed=0;align=center;html=1;shape=mxgraph.mockup.containers.anchor;rSize=0;fontSize=17;fontColor=#666666;align=left;" vertex="1" parent="145">
                    <mxGeometry x="130" y="60" width="250" height="26" as="geometry"/>
                </mxCell>
                <mxCell id="148" value="Logo" style="rounded=1;whiteSpace=wrap;html=1;" vertex="1" parent="145">
                    <mxGeometry x="40" y="130" width="100" height="40" as="geometry"/>
                </mxCell>
                <mxCell id="149" value="" style="strokeWidth=1;shadow=0;dashed=0;align=center;html=1;shape=mxgraph.mockup.text.rrect;rSize=0;strokeColor=#666666;container=0;" vertex="1" parent="145">
                    <mxGeometry x="160" y="130" width="390" height="40" as="geometry"/>
                </mxCell>
                <mxCell id="150" value="" style="group" vertex="1" connectable="0" parent="145">
                    <mxGeometry x="160" y="130" width="390" height="40" as="geometry"/>
                </mxCell>
                <mxCell id="151" value="Phòng ban" style="strokeWidth=1;shadow=0;dashed=0;align=center;html=1;shape=mxgraph.mockup.text.rrect;rSize=0;fontSize=17;" vertex="1" parent="150">
                    <mxGeometry x="130" width="130" height="40" as="geometry"/>
                </mxCell>
                <mxCell id="152" value="Bảng lương" style="strokeWidth=1;shadow=0;dashed=0;align=center;html=1;shape=mxgraph.mockup.text.rrect;rSize=0;fontSize=17;fillColor=#1ba1e2;fontColor=#ffffff;strokeColor=#006EAF;" vertex="1" parent="150">
                    <mxGeometry x="260" width="130" height="40" as="geometry"/>
                </mxCell>
                <mxCell id="153" value="Nhân viên" style="strokeWidth=1;shadow=0;dashed=0;align=center;html=1;shape=mxgraph.mockup.text.rrect;rSize=0;fontSize=17;fontColor=#ffffff;fillColor=none;strokeColor=default;" vertex="1" parent="150">
                    <mxGeometry width="130" height="40" as="geometry"/>
                </mxCell>
                <mxCell id="154" value="&lt;h3 style=&quot;box-sizing: border-box ; margin-top: 0px ; margin-bottom: 0.5rem ; font-family: , &amp;#34;blinkmacsystemfont&amp;#34; , &amp;#34;segoe ui&amp;#34; , &amp;#34;roboto&amp;#34; , &amp;#34;oxygen&amp;#34; , &amp;#34;ubuntu&amp;#34; , &amp;#34;cantarell&amp;#34; , &amp;#34;fira sans&amp;#34; , &amp;#34;droid sans&amp;#34; , &amp;#34;helvetica neue&amp;#34; , sans-serif ; font-weight: 500 ; line-height: 1.2 ; font-size: 1.75rem&quot;&gt;&lt;font color=&quot;#ffffff&quot;&gt;Nguyễn Văn F&lt;/font&gt;&lt;/h3&gt;&lt;h5 class=&quot;card-title&quot; style=&quot;box-sizing: border-box ; margin-top: 0px ; margin-bottom: 0.75rem ; font-family: , &amp;#34;blinkmacsystemfont&amp;#34; , &amp;#34;segoe ui&amp;#34; , &amp;#34;roboto&amp;#34; , &amp;#34;oxygen&amp;#34; , &amp;#34;ubuntu&amp;#34; , &amp;#34;cantarell&amp;#34; , &amp;#34;fira sans&amp;#34; , &amp;#34;droid sans&amp;#34; , &amp;#34;helvetica neue&amp;#34; , sans-serif ; font-weight: 500 ; line-height: 1.2 ; font-size: 1.25rem&quot;&gt;&lt;font color=&quot;#ffffff&quot;&gt;Mã nhân viên:&amp;nbsp;15&lt;/font&gt;&lt;/h5&gt;&lt;h5 class=&quot;card-title&quot; style=&quot;box-sizing: border-box ; margin-top: 0px ; margin-bottom: 0.75rem ; font-family: , &amp;#34;blinkmacsystemfont&amp;#34; , &amp;#34;segoe ui&amp;#34; , &amp;#34;roboto&amp;#34; , &amp;#34;oxygen&amp;#34; , &amp;#34;ubuntu&amp;#34; , &amp;#34;cantarell&amp;#34; , &amp;#34;fira sans&amp;#34; , &amp;#34;droid sans&amp;#34; , &amp;#34;helvetica neue&amp;#34; , sans-serif ; font-weight: 500 ; line-height: 1.2 ; font-size: 1.25rem&quot;&gt;&lt;font color=&quot;#ffffff&quot;&gt;Hệ số lượng:&amp;nbsp;1&lt;/font&gt;&lt;/h5&gt;&lt;h5 class=&quot;card-title&quot; style=&quot;box-sizing: border-box ; margin-top: 0px ; margin-bottom: 0.75rem ; font-family: , &amp;#34;blinkmacsystemfont&amp;#34; , &amp;#34;segoe ui&amp;#34; , &amp;#34;roboto&amp;#34; , &amp;#34;oxygen&amp;#34; , &amp;#34;ubuntu&amp;#34; , &amp;#34;cantarell&amp;#34; , &amp;#34;fira sans&amp;#34; , &amp;#34;droid sans&amp;#34; , &amp;#34;helvetica neue&amp;#34; , sans-serif ; font-weight: 500 ; line-height: 1.2 ; font-size: 1.25rem&quot;&gt;&lt;font color=&quot;#ffffff&quot;&gt;Số ngày làm thêm:&amp;nbsp;10&lt;/font&gt;&lt;/h5&gt;&lt;div&gt;&lt;font color=&quot;#ffffff&quot;&gt;Lương: 500000&lt;/font&gt;&lt;/div&gt;" style="strokeWidth=1;shadow=0;align=left;html=1;shape=mxgraph.mockup.text.bulletedList;textColor=#666666;mainText=,,,,;textSize=17;bulletStyle=none;strokeColor=default;fillColor=none;align=left;verticalAlign=top;fontSize=17;fontColor=#666666;" vertex="1" parent="145">
                    <mxGeometry x="30" y="375" width="208.4" height="185" as="geometry"/>
                </mxCell>
                <mxCell id="155" style="edgeStyle=none;html=1;exitX=1;exitY=0;exitDx=0;exitDy=0;entryX=1;entryY=0.25;entryDx=0;entryDy=0;fontSize=18;" edge="1" parent="145">
                    <mxGeometry relative="1" as="geometry">
                        <mxPoint x="318.9999999999999" y="360" as="sourcePoint"/>
                        <mxPoint x="318.9999999999999" y="367.5" as="targetPoint"/>
                    </mxGeometry>
                </mxCell>
                <mxCell id="156" value="" style="group" vertex="1" connectable="0" parent="145">
                    <mxGeometry x="-9" y="220" width="279" height="40" as="geometry"/>
                </mxCell>
                <mxCell id="157" value="Nhân viên" style="text;strokeColor=none;fillColor=none;html=1;fontSize=24;fontStyle=1;verticalAlign=middle;align=center;" vertex="1" parent="156">
                    <mxGeometry width="150" height="40" as="geometry"/>
                </mxCell>
                <mxCell id="158" value="/" style="strokeWidth=1;shadow=0;dashed=0;align=center;html=1;shape=mxgraph.mockup.navigation.anchor;fontSize=24;fontColor=#aaaaaa;fontStyle=1;" vertex="1" parent="156">
                    <mxGeometry x="135" y="8" width="20" height="30" as="geometry"/>
                </mxCell>
                <mxCell id="159" value="Bảng lương" style="strokeWidth=1;shadow=0;dashed=0;align=center;html=1;shape=mxgraph.mockup.navigation.anchor;fontSize=17;fontColor=#008cff;fontStyle=1;" vertex="1" parent="156">
                    <mxGeometry x="159" y="6" width="120" height="30" as="geometry"/>
                </mxCell>
                <mxCell id="160" value="Sắp xêp:" style="text;html=1;strokeColor=none;fillColor=none;align=center;verticalAlign=middle;whiteSpace=wrap;rounded=0;" vertex="1" parent="145">
                    <mxGeometry x="6.400000000000006" y="270" width="60" height="30" as="geometry"/>
                </mxCell>
                <mxCell id="161" value="Mã nhân viên" style="strokeWidth=1;shadow=0;dashed=0;align=center;html=1;shape=mxgraph.mockup.buttons.button;strokeColor=#666666;fontColor=#ffffff;mainText=;buttonStyle=round;fontSize=17;fontStyle=1;fillColor=#008cff;whiteSpace=wrap;" vertex="1" parent="145">
                    <mxGeometry x="66.4" y="270" width="113.6" height="30" as="geometry"/>
                </mxCell>
                <mxCell id="162" value="&lt;h3 style=&quot;box-sizing: border-box ; margin-top: 0px ; margin-bottom: 0.5rem ; font-family: , &amp;#34;blinkmacsystemfont&amp;#34; , &amp;#34;segoe ui&amp;#34; , &amp;#34;roboto&amp;#34; , &amp;#34;oxygen&amp;#34; , &amp;#34;ubuntu&amp;#34; , &amp;#34;cantarell&amp;#34; , &amp;#34;fira sans&amp;#34; , &amp;#34;droid sans&amp;#34; , &amp;#34;helvetica neue&amp;#34; , sans-serif ; font-weight: 500 ; line-height: 1.2 ; font-size: 1.75rem&quot;&gt;&lt;font color=&quot;#ffffff&quot;&gt;Nguyễn Văn F&lt;/font&gt;&lt;/h3&gt;&lt;h5 class=&quot;card-title&quot; style=&quot;box-sizing: border-box ; margin-top: 0px ; margin-bottom: 0.75rem ; font-family: , &amp;#34;blinkmacsystemfont&amp;#34; , &amp;#34;segoe ui&amp;#34; , &amp;#34;roboto&amp;#34; , &amp;#34;oxygen&amp;#34; , &amp;#34;ubuntu&amp;#34; , &amp;#34;cantarell&amp;#34; , &amp;#34;fira sans&amp;#34; , &amp;#34;droid sans&amp;#34; , &amp;#34;helvetica neue&amp;#34; , sans-serif ; font-weight: 500 ; line-height: 1.2 ; font-size: 1.25rem&quot;&gt;&lt;font color=&quot;#ffffff&quot;&gt;Mã nhân viên:&amp;nbsp;15&lt;/font&gt;&lt;/h5&gt;&lt;h5 class=&quot;card-title&quot; style=&quot;box-sizing: border-box ; margin-top: 0px ; margin-bottom: 0.75rem ; font-family: , &amp;#34;blinkmacsystemfont&amp;#34; , &amp;#34;segoe ui&amp;#34; , &amp;#34;roboto&amp;#34; , &amp;#34;oxygen&amp;#34; , &amp;#34;ubuntu&amp;#34; , &amp;#34;cantarell&amp;#34; , &amp;#34;fira sans&amp;#34; , &amp;#34;droid sans&amp;#34; , &amp;#34;helvetica neue&amp;#34; , sans-serif ; font-weight: 500 ; line-height: 1.2 ; font-size: 1.25rem&quot;&gt;&lt;font color=&quot;#ffffff&quot;&gt;Hệ số lượng:&amp;nbsp;1&lt;/font&gt;&lt;/h5&gt;&lt;h5 class=&quot;card-title&quot; style=&quot;box-sizing: border-box ; margin-top: 0px ; margin-bottom: 0.75rem ; font-family: , &amp;#34;blinkmacsystemfont&amp;#34; , &amp;#34;segoe ui&amp;#34; , &amp;#34;roboto&amp;#34; , &amp;#34;oxygen&amp;#34; , &amp;#34;ubuntu&amp;#34; , &amp;#34;cantarell&amp;#34; , &amp;#34;fira sans&amp;#34; , &amp;#34;droid sans&amp;#34; , &amp;#34;helvetica neue&amp;#34; , sans-serif ; font-weight: 500 ; line-height: 1.2 ; font-size: 1.25rem&quot;&gt;&lt;font color=&quot;#ffffff&quot;&gt;Số ngày làm thêm:&amp;nbsp;10&lt;/font&gt;&lt;/h5&gt;&lt;div&gt;&lt;font color=&quot;#ffffff&quot;&gt;Lương: 500000&lt;/font&gt;&lt;/div&gt;" style="strokeWidth=1;shadow=0;align=left;html=1;shape=mxgraph.mockup.text.bulletedList;textColor=#666666;mainText=,,,,;textSize=17;bulletStyle=none;strokeColor=default;fillColor=none;align=left;verticalAlign=top;fontSize=17;fontColor=#666666;" vertex="1" parent="145">
                    <mxGeometry x="296.4" y="368" width="208.4" height="185" as="geometry"/>
                </mxCell>
                <mxCell id="163" value="&lt;h3 style=&quot;box-sizing: border-box ; margin-top: 0px ; margin-bottom: 0.5rem ; font-family: , &amp;#34;blinkmacsystemfont&amp;#34; , &amp;#34;segoe ui&amp;#34; , &amp;#34;roboto&amp;#34; , &amp;#34;oxygen&amp;#34; , &amp;#34;ubuntu&amp;#34; , &amp;#34;cantarell&amp;#34; , &amp;#34;fira sans&amp;#34; , &amp;#34;droid sans&amp;#34; , &amp;#34;helvetica neue&amp;#34; , sans-serif ; font-weight: 500 ; line-height: 1.2 ; font-size: 1.75rem&quot;&gt;&lt;font color=&quot;#ffffff&quot;&gt;Nguyễn Văn F&lt;/font&gt;&lt;/h3&gt;&lt;h5 class=&quot;card-title&quot; style=&quot;box-sizing: border-box ; margin-top: 0px ; margin-bottom: 0.75rem ; font-family: , &amp;#34;blinkmacsystemfont&amp;#34; , &amp;#34;segoe ui&amp;#34; , &amp;#34;roboto&amp;#34; , &amp;#34;oxygen&amp;#34; , &amp;#34;ubuntu&amp;#34; , &amp;#34;cantarell&amp;#34; , &amp;#34;fira sans&amp;#34; , &amp;#34;droid sans&amp;#34; , &amp;#34;helvetica neue&amp;#34; , sans-serif ; font-weight: 500 ; line-height: 1.2 ; font-size: 1.25rem&quot;&gt;&lt;font color=&quot;#ffffff&quot;&gt;Mã nhân viên:&amp;nbsp;15&lt;/font&gt;&lt;/h5&gt;&lt;h5 class=&quot;card-title&quot; style=&quot;box-sizing: border-box ; margin-top: 0px ; margin-bottom: 0.75rem ; font-family: , &amp;#34;blinkmacsystemfont&amp;#34; , &amp;#34;segoe ui&amp;#34; , &amp;#34;roboto&amp;#34; , &amp;#34;oxygen&amp;#34; , &amp;#34;ubuntu&amp;#34; , &amp;#34;cantarell&amp;#34; , &amp;#34;fira sans&amp;#34; , &amp;#34;droid sans&amp;#34; , &amp;#34;helvetica neue&amp;#34; , sans-serif ; font-weight: 500 ; line-height: 1.2 ; font-size: 1.25rem&quot;&gt;&lt;font color=&quot;#ffffff&quot;&gt;Hệ số lượng:&amp;nbsp;1&lt;/font&gt;&lt;/h5&gt;&lt;h5 class=&quot;card-title&quot; style=&quot;box-sizing: border-box ; margin-top: 0px ; margin-bottom: 0.75rem ; font-family: , &amp;#34;blinkmacsystemfont&amp;#34; , &amp;#34;segoe ui&amp;#34; , &amp;#34;roboto&amp;#34; , &amp;#34;oxygen&amp;#34; , &amp;#34;ubuntu&amp;#34; , &amp;#34;cantarell&amp;#34; , &amp;#34;fira sans&amp;#34; , &amp;#34;droid sans&amp;#34; , &amp;#34;helvetica neue&amp;#34; , sans-serif ; font-weight: 500 ; line-height: 1.2 ; font-size: 1.25rem&quot;&gt;&lt;font color=&quot;#ffffff&quot;&gt;Số ngày làm thêm:&amp;nbsp;10&lt;/font&gt;&lt;/h5&gt;&lt;div&gt;&lt;font color=&quot;#ffffff&quot;&gt;Lương: 500000&lt;/font&gt;&lt;/div&gt;" style="strokeWidth=1;shadow=0;align=left;html=1;shape=mxgraph.mockup.text.bulletedList;textColor=#666666;mainText=,,,,;textSize=17;bulletStyle=none;strokeColor=default;fillColor=none;align=left;verticalAlign=top;fontSize=17;fontColor=#666666;" vertex="1" parent="145">
                    <mxGeometry x="566.4" y="368" width="208.4" height="185" as="geometry"/>
                </mxCell>
                <mxCell id="164" value="&lt;h3 style=&quot;box-sizing: border-box ; margin-top: 0px ; margin-bottom: 0.5rem ; font-family: , &amp;#34;blinkmacsystemfont&amp;#34; , &amp;#34;segoe ui&amp;#34; , &amp;#34;roboto&amp;#34; , &amp;#34;oxygen&amp;#34; , &amp;#34;ubuntu&amp;#34; , &amp;#34;cantarell&amp;#34; , &amp;#34;fira sans&amp;#34; , &amp;#34;droid sans&amp;#34; , &amp;#34;helvetica neue&amp;#34; , sans-serif ; font-weight: 500 ; line-height: 1.2 ; font-size: 1.75rem&quot;&gt;&lt;font color=&quot;#ffffff&quot;&gt;Nguyễn Văn F&lt;/font&gt;&lt;/h3&gt;&lt;h5 class=&quot;card-title&quot; style=&quot;box-sizing: border-box ; margin-top: 0px ; margin-bottom: 0.75rem ; font-family: , &amp;#34;blinkmacsystemfont&amp;#34; , &amp;#34;segoe ui&amp;#34; , &amp;#34;roboto&amp;#34; , &amp;#34;oxygen&amp;#34; , &amp;#34;ubuntu&amp;#34; , &amp;#34;cantarell&amp;#34; , &amp;#34;fira sans&amp;#34; , &amp;#34;droid sans&amp;#34; , &amp;#34;helvetica neue&amp;#34; , sans-serif ; font-weight: 500 ; line-height: 1.2 ; font-size: 1.25rem&quot;&gt;&lt;font color=&quot;#ffffff&quot;&gt;Mã nhân viên:&amp;nbsp;15&lt;/font&gt;&lt;/h5&gt;&lt;h5 class=&quot;card-title&quot; style=&quot;box-sizing: border-box ; margin-top: 0px ; margin-bottom: 0.75rem ; font-family: , &amp;#34;blinkmacsystemfont&amp;#34; , &amp;#34;segoe ui&amp;#34; , &amp;#34;roboto&amp;#34; , &amp;#34;oxygen&amp;#34; , &amp;#34;ubuntu&amp;#34; , &amp;#34;cantarell&amp;#34; , &amp;#34;fira sans&amp;#34; , &amp;#34;droid sans&amp;#34; , &amp;#34;helvetica neue&amp;#34; , sans-serif ; font-weight: 500 ; line-height: 1.2 ; font-size: 1.25rem&quot;&gt;&lt;font color=&quot;#ffffff&quot;&gt;Hệ số lượng:&amp;nbsp;1&lt;/font&gt;&lt;/h5&gt;&lt;h5 class=&quot;card-title&quot; style=&quot;box-sizing: border-box ; margin-top: 0px ; margin-bottom: 0.75rem ; font-family: , &amp;#34;blinkmacsystemfont&amp;#34; , &amp;#34;segoe ui&amp;#34; , &amp;#34;roboto&amp;#34; , &amp;#34;oxygen&amp;#34; , &amp;#34;ubuntu&amp;#34; , &amp;#34;cantarell&amp;#34; , &amp;#34;fira sans&amp;#34; , &amp;#34;droid sans&amp;#34; , &amp;#34;helvetica neue&amp;#34; , sans-serif ; font-weight: 500 ; line-height: 1.2 ; font-size: 1.25rem&quot;&gt;&lt;font color=&quot;#ffffff&quot;&gt;Số ngày làm thêm:&amp;nbsp;10&lt;/font&gt;&lt;/h5&gt;&lt;div&gt;&lt;font color=&quot;#ffffff&quot;&gt;Lương: 500000&lt;/font&gt;&lt;/div&gt;" style="strokeWidth=1;shadow=0;align=left;html=1;shape=mxgraph.mockup.text.bulletedList;textColor=#666666;mainText=,,,,;textSize=17;bulletStyle=none;strokeColor=default;fillColor=none;align=left;verticalAlign=top;fontSize=17;fontColor=#666666;" vertex="1" parent="145">
                    <mxGeometry x="30" y="580" width="208.4" height="185" as="geometry"/>
                </mxCell>
                <mxCell id="165" value="&lt;h3 style=&quot;box-sizing: border-box ; margin-top: 0px ; margin-bottom: 0.5rem ; font-family: , &amp;#34;blinkmacsystemfont&amp;#34; , &amp;#34;segoe ui&amp;#34; , &amp;#34;roboto&amp;#34; , &amp;#34;oxygen&amp;#34; , &amp;#34;ubuntu&amp;#34; , &amp;#34;cantarell&amp;#34; , &amp;#34;fira sans&amp;#34; , &amp;#34;droid sans&amp;#34; , &amp;#34;helvetica neue&amp;#34; , sans-serif ; font-weight: 500 ; line-height: 1.2 ; font-size: 1.75rem&quot;&gt;&lt;font color=&quot;#ffffff&quot;&gt;Nguyễn Văn F&lt;/font&gt;&lt;/h3&gt;&lt;h5 class=&quot;card-title&quot; style=&quot;box-sizing: border-box ; margin-top: 0px ; margin-bottom: 0.75rem ; font-family: , &amp;#34;blinkmacsystemfont&amp;#34; , &amp;#34;segoe ui&amp;#34; , &amp;#34;roboto&amp;#34; , &amp;#34;oxygen&amp;#34; , &amp;#34;ubuntu&amp;#34; , &amp;#34;cantarell&amp;#34; , &amp;#34;fira sans&amp;#34; , &amp;#34;droid sans&amp;#34; , &amp;#34;helvetica neue&amp;#34; , sans-serif ; font-weight: 500 ; line-height: 1.2 ; font-size: 1.25rem&quot;&gt;&lt;font color=&quot;#ffffff&quot;&gt;Mã nhân viên:&amp;nbsp;15&lt;/font&gt;&lt;/h5&gt;&lt;h5 class=&quot;card-title&quot; style=&quot;box-sizing: border-box ; margin-top: 0px ; margin-bottom: 0.75rem ; font-family: , &amp;#34;blinkmacsystemfont&amp;#34; , &amp;#34;segoe ui&amp;#34; , &amp;#34;roboto&amp;#34; , &amp;#34;oxygen&amp;#34; , &amp;#34;ubuntu&amp;#34; , &amp;#34;cantarell&amp;#34; , &amp;#34;fira sans&amp;#34; , &amp;#34;droid sans&amp;#34; , &amp;#34;helvetica neue&amp;#34; , sans-serif ; font-weight: 500 ; line-height: 1.2 ; font-size: 1.25rem&quot;&gt;&lt;font color=&quot;#ffffff&quot;&gt;Hệ số lượng:&amp;nbsp;1&lt;/font&gt;&lt;/h5&gt;&lt;h5 class=&quot;card-title&quot; style=&quot;box-sizing: border-box ; margin-top: 0px ; margin-bottom: 0.75rem ; font-family: , &amp;#34;blinkmacsystemfont&amp;#34; , &amp;#34;segoe ui&amp;#34; , &amp;#34;roboto&amp;#34; , &amp;#34;oxygen&amp;#34; , &amp;#34;ubuntu&amp;#34; , &amp;#34;cantarell&amp;#34; , &amp;#34;fira sans&amp;#34; , &amp;#34;droid sans&amp;#34; , &amp;#34;helvetica neue&amp;#34; , sans-serif ; font-weight: 500 ; line-height: 1.2 ; font-size: 1.25rem&quot;&gt;&lt;font color=&quot;#ffffff&quot;&gt;Số ngày làm thêm:&amp;nbsp;10&lt;/font&gt;&lt;/h5&gt;&lt;div&gt;&lt;font color=&quot;#ffffff&quot;&gt;Lương: 500000&lt;/font&gt;&lt;/div&gt;" style="strokeWidth=1;shadow=0;align=left;html=1;shape=mxgraph.mockup.text.bulletedList;textColor=#666666;mainText=,,,,;textSize=17;bulletStyle=none;strokeColor=default;fillColor=none;align=left;verticalAlign=top;fontSize=17;fontColor=#666666;" vertex="1" parent="145">
                    <mxGeometry x="296.4" y="580" width="208.4" height="185" as="geometry"/>
                </mxCell>
                <mxCell id="166" value="&lt;h3 style=&quot;box-sizing: border-box ; margin-top: 0px ; margin-bottom: 0.5rem ; font-family: , &amp;#34;blinkmacsystemfont&amp;#34; , &amp;#34;segoe ui&amp;#34; , &amp;#34;roboto&amp;#34; , &amp;#34;oxygen&amp;#34; , &amp;#34;ubuntu&amp;#34; , &amp;#34;cantarell&amp;#34; , &amp;#34;fira sans&amp;#34; , &amp;#34;droid sans&amp;#34; , &amp;#34;helvetica neue&amp;#34; , sans-serif ; font-weight: 500 ; line-height: 1.2 ; font-size: 1.75rem&quot;&gt;&lt;font color=&quot;#ffffff&quot;&gt;Nguyễn Văn F&lt;/font&gt;&lt;/h3&gt;&lt;h5 class=&quot;card-title&quot; style=&quot;box-sizing: border-box ; margin-top: 0px ; margin-bottom: 0.75rem ; font-family: , &amp;#34;blinkmacsystemfont&amp;#34; , &amp;#34;segoe ui&amp;#34; , &amp;#34;roboto&amp;#34; , &amp;#34;oxygen&amp;#34; , &amp;#34;ubuntu&amp;#34; , &amp;#34;cantarell&amp;#34; , &amp;#34;fira sans&amp;#34; , &amp;#34;droid sans&amp;#34; , &amp;#34;helvetica neue&amp;#34; , sans-serif ; font-weight: 500 ; line-height: 1.2 ; font-size: 1.25rem&quot;&gt;&lt;font color=&quot;#ffffff&quot;&gt;Mã nhân viên:&amp;nbsp;15&lt;/font&gt;&lt;/h5&gt;&lt;h5 class=&quot;card-title&quot; style=&quot;box-sizing: border-box ; margin-top: 0px ; margin-bottom: 0.75rem ; font-family: , &amp;#34;blinkmacsystemfont&amp;#34; , &amp;#34;segoe ui&amp;#34; , &amp;#34;roboto&amp;#34; , &amp;#34;oxygen&amp;#34; , &amp;#34;ubuntu&amp;#34; , &amp;#34;cantarell&amp;#34; , &amp;#34;fira sans&amp;#34; , &amp;#34;droid sans&amp;#34; , &amp;#34;helvetica neue&amp;#34; , sans-serif ; font-weight: 500 ; line-height: 1.2 ; font-size: 1.25rem&quot;&gt;&lt;font color=&quot;#ffffff&quot;&gt;Hệ số lượng:&amp;nbsp;1&lt;/font&gt;&lt;/h5&gt;&lt;h5 class=&quot;card-title&quot; style=&quot;box-sizing: border-box ; margin-top: 0px ; margin-bottom: 0.75rem ; font-family: , &amp;#34;blinkmacsystemfont&amp;#34; , &amp;#34;segoe ui&amp;#34; , &amp;#34;roboto&amp;#34; , &amp;#34;oxygen&amp;#34; , &amp;#34;ubuntu&amp;#34; , &amp;#34;cantarell&amp;#34; , &amp;#34;fira sans&amp;#34; , &amp;#34;droid sans&amp;#34; , &amp;#34;helvetica neue&amp;#34; , sans-serif ; font-weight: 500 ; line-height: 1.2 ; font-size: 1.25rem&quot;&gt;&lt;font color=&quot;#ffffff&quot;&gt;Số ngày làm thêm:&amp;nbsp;10&lt;/font&gt;&lt;/h5&gt;&lt;div&gt;&lt;font color=&quot;#ffffff&quot;&gt;Lương: 500000&lt;/font&gt;&lt;/div&gt;" style="strokeWidth=1;shadow=0;align=left;html=1;shape=mxgraph.mockup.text.bulletedList;textColor=#666666;mainText=,,,,;textSize=17;bulletStyle=none;strokeColor=default;fillColor=none;align=left;verticalAlign=top;fontSize=17;fontColor=#666666;" vertex="1" parent="145">
                    <mxGeometry x="566.4" y="580" width="208.4" height="185" as="geometry"/>
                </mxCell>
            </root>
        </mxGraphModel>
    </diagram>
</mxfile>